<svg preserveAspectRatio="none" width="100%" height="100%" overflow="visible" style="display: block;" viewBox="0 0 24 24" fill="none" xmlns="http://www.w3.org/2000/svg">
<g id="icon">
<g id="Path">
</g>
<path id="Path_2" fill-rule="evenodd" clip-rule="evenodd" d="M22 15.236V18C22 18.552 21.552 19 21 19H3C2.448 19 2 18.552 2 18V15.236C2 15.091 2.082 14.959 2.211 14.894Lnan nanLnan nanL2.211 14.894C3.308 14.346 4 13.226 4 12Lnan nanLnan nanL4 12C4 10.774 3.307 9.654 2.211 9.106Lnan nanLnan nanL2.211 9.106C2.082 9.041 2 8.909 2 8.764V6C2 5.448 2.448 5 3 5H21C21.552 5 22 5.448 22 6V8.764C22 8.909 21.918 9.041 21.789 9.106L21.745 9.129C20.673 9.685 20 10.792 20 12Lnan nanLnan nanL20 12C20 13.2248 20.6918 14.3457 21.7876 14.8938C21.7878 14.8939 21.7882 14.894 21.7885 14.894C21.7888 14.894 21.7892 14.8941 21.7894 14.8942C21.9182 14.9593 22 15.0912 22 15.236Z" fill="var(--fill-0, #FFAA22)"/>
<path id="Path_3" d="M9.43 14.57L14.43 9.57" stroke="var(--stroke-0, white)" stroke-width="1.5" stroke-linecap="round" stroke-linejoin="round"/>
<path id="Path_4" d="M14.499 14.25C14.361 14.25 14.249 14.362 14.25 14.5C14.25 14.638 14.362 14.75 14.5 14.75C14.638 14.75 14.75 14.638 14.75 14.5C14.75 14.362 14.638 14.25 14.499 14.25" stroke="var(--stroke-0, white)" stroke-width="1.5" stroke-linecap="round" stroke-linejoin="round"/>
<path id="Path_5" d="M9.499 9.25C9.361 9.25 9.249 9.362 9.25 9.5C9.25 9.638 9.362 9.75 9.5 9.75C9.638 9.75 9.75 9.638 9.75 9.5C9.75 9.362 9.638 9.25 9.499 9.25" stroke="var(--stroke-0, white)" stroke-width="1.5" stroke-linecap="round" stroke-linejoin="round"/>
</g>
</svg>
