<svg preserveAspectRatio="none" width="100%" height="100%" overflow="visible" style="display: block;" viewBox="0 0 20 20" fill="none" xmlns="http://www.w3.org/2000/svg">
<path id="Vector" fill-rule="evenodd" clip-rule="evenodd" d="M9.75 19.5C15.1348 19.5 19.5 15.1348 19.5 9.75C19.5 4.36522 15.1348 0 9.75 0C4.36522 0 0 4.36522 0 9.75C0 15.1348 4.36522 19.5 9.75 19.5ZM9.95312 4.0625C10.6262 4.0625 11.1719 4.60815 11.1719 5.28125C11.1719 5.95435 10.6262 6.5 9.95312 6.5C9.28003 6.5 8.73438 5.95435 8.73438 5.28125C8.73438 4.60815 9.28003 4.0625 9.95312 4.0625ZM11.7812 15.0312H8.53125C8.08252 15.0312 7.71875 14.6675 7.71875 14.2188C7.71875 13.77 8.08252 13.4062 8.53125 13.4062H9.14062C9.25281 13.4062 9.34375 13.3153 9.34375 13.2031V9.54688C9.34375 9.43469 9.25281 9.34375 9.14062 9.34375H8.53125C8.08252 9.34375 7.71875 8.97998 7.71875 8.53125C7.71875 8.08252 8.08252 7.71875 8.53125 7.71875H9.34375C10.2412 7.71875 10.9688 8.44629 10.9688 9.34375V13.2031C10.9688 13.3153 11.0597 13.4062 11.1719 13.4062H11.7812C12.23 13.4062 12.5938 13.77 12.5938 14.2188C12.5938 14.6675 12.23 15.0312 11.7812 15.0312Z" fill="var(--fill-0, #69737B)"/>
</svg>
