<svg preserveAspectRatio="none" width="100%" height="100%" overflow="visible" style="display: block;" viewBox="0 0 24 24" fill="none" xmlns="http://www.w3.org/2000/svg">
<g id="Container">
<g id="Vector">
<path d="M7.444 17.9816H5.556C5.386 17.9816 5.246 17.8416 5.246 17.6716V10.2816C5.246 10.1116 5.376 9.97155 5.546 9.97155H7.434C7.594 9.97155 7.734 10.1016 7.734 10.2716V17.6516C7.734 17.8116 7.594 17.9516 7.424 17.9516L7.444 17.9816ZM7.444 19.4816C8.434 19.4816 9.25 18.6716 9.25 17.6716V10.2816C9.25 9.28155 8.44 8.47155 7.444 8.47155H5.556C4.556 8.47155 3.75 9.27155 3.75 10.2716V17.6596C3.75 18.6496 4.55 19.4596 5.556 19.4596H7.444V19.4816Z" fill="var(--fill-0, #69737B)"/>
<path d="M9.09 10.7516L12.73 5.99155C13.11 5.48155 13.86 5.47155 14.27 5.96155C14.42 6.14155 14.5 6.38155 14.5 6.62155V9.89255C14.5 10.3026 14.83 10.6426 15.25 10.6426H18.346C18.696 10.6426 19.016 10.8126 19.216 11.1026L19.536 11.5926C19.706 11.8426 19.756 12.1626 19.666 12.4626L18.306 17.1826C18.176 17.6226 17.756 17.9326 17.296 17.9326H11.006C10.706 17.9326 10.426 17.8026 10.236 17.5926L8.996 16.2626C8.706 15.9526 8.236 15.9326 7.936 16.2226C7.626 16.5026 7.606 16.9726 7.896 17.2726L9.126 18.5926C9.606 19.1026 10.276 19.4026 10.986 19.4026H17.266C18.396 19.4026 19.396 18.6426 19.706 17.5526L21.056 12.8226C21.256 12.0926 21.136 11.3226 20.716 10.6926L20.386 10.1926C19.906 9.48255 19.116 9.05255 18.266 9.05255H15.17L15.92 9.80255V6.53155C15.92 5.93155 15.71 5.36155 15.33 4.91155C14.31 3.67155 12.41 3.70155 11.44 4.97155L7.79 9.72155C7.53 10.0416 7.59 10.5116 7.92 10.7716C8.24 11.0216 8.71 10.9616 8.97 10.6316L9.09 10.7516Z" fill="var(--fill-0, #69737B)"/>
</g>
</g>
</svg>
