<svg preserveAspectRatio="none" width="100%" height="100%" overflow="visible" style="display: block;" viewBox="0 0 24 24" fill="none" xmlns="http://www.w3.org/2000/svg">
<g id="Container">
<path id="Vector" fill-rule="evenodd" clip-rule="evenodd" d="M15.2852 3.74248C15.4128 2.88573 16.1477 2.25 17.016 2.25H19.153C19.5672 2.25 19.903 2.58579 19.903 3C19.903 3.41421 19.5672 3.75 19.153 3.75H17.016C16.8923 3.75 16.7872 3.84027 16.7688 3.96351L16.4288 6.25H20C21.0654 6.25 21.883 7.19327 21.7325 8.24707L20.0185 20.247C19.8944 21.1082 19.1569 21.75 18.286 21.75H16.153C15.7388 21.75 15.403 21.4142 15.403 21C15.403 20.5858 15.7388 20.25 16.153 20.25H18.286C18.4091 20.25 18.5157 20.1589 18.5337 20.0341L20.2475 8.03493C20.269 7.88473 20.1526 7.75 20 7.75H15.5722C15.5641 7.75013 15.5559 7.75013 15.5476 7.75H11.295C11.1438 7.75 11.0266 7.88267 11.0466 8.03409L11.343 10.2655C13.2534 10.4387 14.75 12.0444 14.75 14V14.25H15C15.4142 14.25 15.75 14.5858 15.75 15C15.75 15.4142 15.4142 15.75 15 15.75H2C1.58579 15.75 1.25 15.4142 1.25 15C1.25 14.5858 1.58579 14.25 2 14.25H2.25V14C2.25 11.9288 3.92879 10.25 6 10.25H9.82778L9.55953 8.23077C9.42147 7.18219 10.2362 6.25 11.295 6.25H14.9123L15.2852 3.74248ZM10.6717 11.75H6C4.75721 11.75 3.75 12.7572 3.75 14V14.25H13.25V14C13.25 12.7572 12.2428 11.75 11 11.75H10.6944C10.6868 11.7501 10.6792 11.7501 10.6717 11.75ZM2.25 18C2.25 17.5858 2.58579 17.25 3 17.25H14C14.4142 17.25 14.75 17.5858 14.75 18V19C14.75 20.5192 13.5192 21.75 12 21.75H5C3.48079 21.75 2.25 20.5192 2.25 19V18ZM3.75 18.75V19C3.75 19.6908 4.30921 20.25 5 20.25H12C12.6908 20.25 13.25 19.6908 13.25 19V18.75H3.75Z" fill="var(--fill-0, #69737B)"/>
</g>
</svg>
