<svg preserveAspectRatio="none" width="100%" height="100%" overflow="visible" style="display: block;" viewBox="0 0 16 16" fill="none" xmlns="http://www.w3.org/2000/svg">
<g id="Container">
<path id="Vector (Stroke)" fill-rule="evenodd" clip-rule="evenodd" d="M11.8891 4.11091C9.7412 1.96303 6.2588 1.96303 4.11091 4.11091L4.11091 4.11091C1.96303 6.25878 1.96303 9.74119 4.11091 11.8891C6.25878 14.037 9.74119 14.037 11.8891 11.8891C14.037 9.7412 14.037 6.2588 11.8891 4.11091L12.2426 3.75736L11.8891 4.11091ZM3.40381 3.40381C5.94222 0.865398 10.0578 0.865397 12.5962 3.40381C15.1346 5.94221 15.1346 10.0578 12.5962 12.5962C10.0578 15.1346 5.9422 15.1346 3.40381 12.5962C0.865398 10.0578 0.865397 5.9422 3.40381 3.40381ZM7.81263 3.99067C8.08877 3.99067 8.31263 4.21452 8.31263 4.49067V8.42539L11.3501 10.2373C11.5873 10.3787 11.6648 10.6857 11.5234 10.9228C11.3819 11.16 11.075 11.2375 10.8378 11.0961L7.55648 9.13874C7.40525 9.04853 7.31263 8.88542 7.31263 8.70933V4.49067C7.31263 4.21452 7.53648 3.99067 7.81263 3.99067Z" fill="var(--fill-0, #9BA4AB)"/>
</g>
</svg>
