<svg preserveAspectRatio="none" width="100%" height="100%" overflow="visible" style="display: block;" viewBox="0 0 81 28" fill="none" xmlns="http://www.w3.org/2000/svg">
<g id="Group">
<path id="Vector" d="M65.5336 6.73004V9.62242H59.1869C58.1343 9.62242 57.5855 10.0954 57.5855 10.8392C57.5855 11.5365 57.8528 11.8492 58.5541 12.2079C60.668 13.2888 66.1625 13.0611 66.1625 18.1622C66.1625 20.7736 64.4571 22.7156 61.1596 22.7156L60.3445 22.7165L54.4083 22.7195V19.7152H60.6499C61.1606 19.7152 62.6397 19.7274 62.6397 18.1984C62.6397 16.9347 61.7724 16.6704 60.7994 16.341C58.4202 15.5347 54.3188 15.3608 54.3188 11.2682C54.3188 8.73062 56.1552 6.72956 59.0803 6.72956L65.5336 6.73004ZM22.4533 22.7195V6.73004H28.587C32.2563 6.73004 35.3022 7.88279 35.3022 12.0032C35.3022 16.0742 32.4811 17.3256 28.7615 17.3256H25.9155V22.72L22.4533 22.7195ZM25.916 9.60727V14.3781H29.0429C30.4161 14.3781 31.7892 13.6216 31.7892 12.0032C31.7892 9.75582 29.9416 9.60776 28.4438 9.60776H25.916V9.60727ZM36.4217 14.7245C36.4217 9.59799 39.9576 6.32348 44.8115 6.32348C49.6648 6.32348 53.2008 9.59799 53.2008 14.7245C53.2008 19.8515 49.6648 23.126 44.8115 23.126C39.9581 23.126 36.4217 19.8515 36.4217 14.7245ZM39.9791 14.7245C39.9791 17.7063 41.8898 19.8735 44.8115 19.8735C47.7322 19.8735 49.6429 17.7058 49.6429 14.7245C49.6429 11.7437 47.7322 9.57502 44.8115 9.57502C41.8903 9.57502 39.9791 11.7437 39.9791 14.7245ZM68.401 22.7205V6.73004H74.2136C77.0146 6.73004 80.0644 7.31692 80.0644 10.7952C80.0644 12.5793 79.1071 13.7985 77.4578 14.3184V14.3634C79.5586 14.6346 80.8096 16.1929 80.8096 18.2707C80.8096 21.6141 77.6475 22.72 74.8015 22.72H68.401V22.7205ZM71.3252 9.60679V13.1217H74.7756C75.8599 13.1217 76.9887 12.6516 76.9887 11.364C76.9887 10.0314 75.7241 9.60679 74.6178 9.60679H71.3252ZM71.3252 16.1025V19.7152H75.3854C76.4927 19.7152 77.7344 19.3096 77.7344 17.9096C77.7344 16.3957 76.0412 16.103 74.8885 16.103L71.3252 16.1025Z" fill="var(--fill-0, #FFA800)"/>
<path id="Vector_2" d="M12.4144 25.2339C12.4144 24.2898 13.1791 23.5246 14.1232 23.5246C15.0668 23.5246 15.8321 24.2898 15.8321 25.2339C15.8321 26.178 15.0673 26.9432 14.1232 26.9432C13.1796 26.9432 12.4144 26.1775 12.4144 25.2339ZM3.27109 11.8676C3.27109 12.9079 4.115 13.7524 5.15585 13.7524C6.19669 13.7524 7.04012 12.9079 7.04012 11.8676C7.04012 10.8267 6.1962 9.98283 5.15585 9.98283C4.115 9.98234 3.27109 10.8267 3.27109 11.8676ZM7.7433 5.15585C7.7433 6.1962 8.58722 7.04061 9.62806 7.04061C10.6689 7.04061 11.5128 6.1962 11.5128 5.15585C11.5128 4.115 10.6689 3.27109 9.62806 3.27109C8.58722 3.27109 7.7433 4.115 7.7433 5.15585ZM12.2155 11.8676C12.2155 12.9079 13.0594 13.7524 14.1003 13.7524C15.1411 13.7524 15.985 12.9079 15.985 11.8676C15.985 10.8267 15.1411 9.98283 14.1003 9.98283C13.0589 9.98234 12.2155 10.8267 12.2155 11.8676ZM4.71703 6.72982C4.55822 6.23383 4.47221 5.7051 4.47221 5.15585C4.47221 2.30843 6.78064 0 9.62806 0C12.4755 0 14.7839 2.30843 14.7839 5.15585C14.7839 5.7051 14.6984 6.23383 14.5396 6.72982C17.1818 6.95265 19.2561 9.16774 19.2561 11.8676C19.2561 14.7155 16.9477 17.0229 14.1003 17.0229C13.1967 17.0229 12.3479 16.7899 11.6091 16.3823V27.7036H9.62709C8.53151 27.6967 7.65485 26.8215 7.64704 25.7387V16.3828C6.90867 16.7903 6.05938 17.0234 5.15585 17.0234C2.30843 17.0234 0 14.7155 0 11.8681C0 9.16774 2.07485 6.95265 4.71703 6.72982ZM12.4144 21.0104C12.4144 20.0663 13.1791 19.3021 14.1232 19.3021C15.0668 19.3021 15.8321 20.0663 15.8321 21.0104C15.8321 21.9545 15.0673 22.7197 14.1232 22.7197C13.1796 22.7197 12.4144 21.9545 12.4144 21.0104Z" fill="var(--fill-0, #0F1F7A)"/>
</g>
</svg>
