<svg preserveAspectRatio="none" width="100%" height="100%" overflow="visible" style="display: block;" viewBox="0 0 24 24" fill="none" xmlns="http://www.w3.org/2000/svg">
<g id="Container">
<path id="Vector" fill-rule="evenodd" clip-rule="evenodd" d="M7.7 3.75C7.00921 3.75 6.45 4.30921 6.45 5V19.7659L11.6626 17.0613C11.8794 16.9488 12.1374 16.9489 12.3541 17.0616L17.55 19.7645V5C17.55 4.30921 16.9908 3.75 16.3 3.75H7.7ZM7.7 2.25C6.18079 2.25 4.95 3.48079 4.95 5V21C4.95 21.2619 5.08665 21.5049 5.31049 21.6409C5.53433 21.777 5.81292 21.7864 6.04542 21.6657L12.0076 18.5722L17.9539 21.6654C18.1864 21.7863 18.4651 21.7771 18.6892 21.6411C18.9132 21.5051 19.05 21.2621 19.05 21V5C19.05 3.48079 17.8192 2.25 16.3 2.25H7.7Z" fill="var(--fill-0, #0095FF)"/>
</g>
</svg>
