<svg preserveAspectRatio="none" width="100%" height="100%" overflow="visible" style="display: block;" viewBox="0 0 24 24" fill="none" xmlns="http://www.w3.org/2000/svg">
<g id="Container">
<g id="Vector">
<path d="M14.03 13.46L10.32 9.75C9.99004 9.42 9.54004 9.23 9.08004 9.23L7.99004 9.22C7.02004 9.22 6.24004 10 6.24004 10.97C6.24004 11.24 6.30004 11.52 6.43004 11.77L7.74004 14.31C7.93004 14.67 8.38004 14.82 8.75004 14.63C9.11004 14.43 9.26004 13.98 9.07004 13.61L7.75004 11.06C7.73004 11.02 7.72004 10.98 7.72004 10.94C7.71004 10.8 7.83004 10.68 7.96004 10.68H9.04004C9.10004 10.68 9.16004 10.7 9.21004 10.75L12.91 14.45C13.2 14.74 13.67 14.74 13.97 14.44C14.26 14.14 14.26 13.67 13.96 13.37L14.03 13.46Z" fill="var(--fill-0, #9BA4AB)"/>
<path d="M22 10.25H18.25C17.97 10.25 17.75 10.02 17.75 9.75V8.75C17.75 7.64 16.85 6.75 15.75 6.75H14.75C14.47 6.75 14.25 6.52 14.25 6.25V2.01C14.25 1.59 13.91 1.26 13.5 1.26C13.08 1.26 12.75 1.59 12.75 2.01V6.25C12.75 7.35 13.64 8.25 14.75 8.25H15.75C16.02 8.25 16.25 8.47 16.25 8.75V9.75C16.25 10.85 17.14 11.75 18.25 11.75H22C22.41 11.75 22.75 11.41 22.75 11C22.75 10.58 22.41 10.25 22 10.25Z" fill="var(--fill-0, #9BA4AB)"/>
<path d="M6.44004 7.3C8.20004 3.4 12.78 1.66 16.68 3.42C19.45 4.67 21.24 7.43 21.23 10.48L21.22 10.98C21.22 11.39 21.55 11.73 21.97 11.73C22.38 11.73 22.72 11.39 22.72 10.98V10.48C22.72 6.84 20.59 3.54 17.27 2.04C12.61 -0.0699971 7.13004 2 5.03004 6.66C4.85004 7.03 5.02004 7.48 5.40004 7.65C5.77004 7.82 6.22004 7.65 6.39004 7.27L6.44004 7.3Z" fill="var(--fill-0, #9BA4AB)"/>
<path d="M11.96 17.46L8.25004 21.16C8.20004 21.2 8.13004 21.23 8.07004 21.23L6.98004 21.229C6.84004 21.219 6.73004 21.109 6.73004 20.969C6.73004 20.929 6.73004 20.889 6.75004 20.849L8.06004 18.299C8.31004 17.799 7.95004 17.199 7.39004 17.199H5.01004C4.47004 17.199 3.99004 16.849 3.82004 16.339L2.71004 13.019C2.66004 12.879 2.73004 12.739 2.86004 12.699C2.88004 12.689 2.91004 12.679 2.93004 12.679H3.92004C4.01004 12.679 4.10004 12.729 4.14004 12.809L4.86004 14.249C4.98004 14.499 5.24004 14.659 5.53004 14.659H15.91C16.6 14.659 17.16 15.209 17.16 15.909C17.16 16.599 16.6 17.159 15.91 17.159H12.41C12.21 17.159 12.02 17.229 11.87 17.369L11.96 17.46ZM13.02 18.52L12.48 18.73H15.98C17.49 18.73 18.73 17.49 18.73 15.98C18.73 14.46 17.49 13.23 15.98 13.23H5.59004L6.26004 13.64L5.53004 12.19C5.23004 11.59 4.62004 11.22 3.96004 11.22L2.96004 11.219C2.77004 11.209 2.58004 11.249 2.40004 11.299C1.48004 11.599 0.980043 12.589 1.29004 13.509L2.39004 16.819C2.76004 17.939 3.81004 18.699 4.99004 18.699H7.36004L6.69004 17.599L5.37004 20.139C5.24004 20.379 5.17004 20.659 5.17004 20.939C5.16004 21.899 5.95004 22.689 6.91004 22.689H7.99004C8.45004 22.689 8.89004 22.499 9.22004 22.169L12.92 18.459L13.02 18.52Z" fill="var(--fill-0, #9BA4AB)"/>
</g>
</g>
</svg>
