<svg preserveAspectRatio="none" width="100%" height="100%" overflow="visible" style="display: block;" viewBox="0 0 24 24" fill="none" xmlns="http://www.w3.org/2000/svg">
<g id="Container">
<g id="Vector">
<path d="M17.4564 5.5H19.3444C19.5144 5.5 19.6544 5.64 19.6544 5.81V13.2C19.6544 13.37 19.5244 13.51 19.3544 13.51H17.4664C17.3064 13.51 17.1664 13.38 17.1664 13.21V5.83C17.1664 5.67 17.3064 5.53 17.4764 5.53L17.4564 5.5ZM17.4564 4C16.4664 4 15.6504 4.81 15.6504 5.81V13.2C15.6504 14.2 16.4604 15.01 17.4564 15.01H19.3444C20.3444 15.01 21.1504 14.21 21.1504 13.21V5.822C21.1504 4.832 20.3504 4.022 19.3444 4.022H17.4564V4Z" fill="var(--fill-0, #69737B)"/>
<path d="M15.8104 12.73L12.1704 17.49C11.7904 18 11.0404 18.01 10.6304 17.52C10.4804 17.34 10.4004 17.1 10.4004 16.86V13.589C10.4004 13.179 10.0704 12.839 9.65037 12.839H6.55437C6.20437 12.839 5.88437 12.669 5.68437 12.379L5.36437 11.889C5.19437 11.639 5.14437 11.319 5.23437 11.019L6.59437 6.299C6.72437 5.859 7.14437 5.549 7.60437 5.549H13.8944C14.1944 5.549 14.4744 5.679 14.6644 5.889L15.9044 7.219C16.1944 7.529 16.6644 7.549 16.9644 7.259C17.2744 6.979 17.2944 6.509 17.0044 6.209L15.7744 4.889C15.2944 4.379 14.6244 4.079 13.9144 4.079H7.63437C6.50437 4.079 5.50437 4.839 5.19437 5.929L3.84437 10.659C3.64437 11.389 3.76437 12.159 4.18437 12.789L4.51437 13.289C4.99437 13.999 5.78437 14.429 6.63437 14.429H9.73037L8.98037 13.679V16.95C8.98037 17.55 9.19037 18.12 9.57037 18.57C10.5904 19.81 12.4904 19.78 13.4604 18.51L17.1104 13.76C17.3704 13.44 17.3104 12.97 16.9804 12.71C16.6604 12.46 16.1904 12.52 15.9304 12.85L15.8104 12.73Z" fill="var(--fill-0, #69737B)"/>
</g>
</g>
</svg>
