<svg preserveAspectRatio="none" width="100%" height="100%" overflow="visible" style="display: block;" viewBox="0 0 16 16" fill="none" xmlns="http://www.w3.org/2000/svg">
<g id="Container">
<path id="Vector" fill-rule="evenodd" clip-rule="evenodd" d="M8 2.5C4.96214 2.5 2.5 4.96214 2.5 8C2.5 11.0379 4.96214 13.5 8 13.5C11.0379 13.5 13.5 11.0379 13.5 8C13.5 4.96214 11.0379 2.5 8 2.5ZM1.5 8C1.5 4.40986 4.40986 1.5 8 1.5C11.5901 1.5 14.5 4.40986 14.5 8C14.5 11.5901 11.5901 14.5 8 14.5C4.40986 14.5 1.5 11.5901 1.5 8ZM7.5 5.33333C7.5 5.05719 7.72386 4.83333 8 4.83333H8.00667C8.28281 4.83333 8.50667 5.05719 8.50667 5.33333C8.50667 5.60948 8.28281 5.83333 8.00667 5.83333H8C7.72386 5.83333 7.5 5.60948 7.5 5.33333ZM8 7.5C8.27614 7.5 8.5 7.72386 8.5 8V11.3333C8.5 11.6095 8.27614 11.8333 8 11.8333C7.72386 11.8333 7.5 11.6095 7.5 11.3333V8C7.5 7.72386 7.72386 7.5 8 7.5Z" fill="var(--fill-0, #69737B)"/>
</g>
</svg>
