<svg preserveAspectRatio="none" width="100%" height="100%" overflow="visible" style="display: block;" viewBox="0 0 24 24" fill="none" xmlns="http://www.w3.org/2000/svg">
<g id="Container">
<g id="Vector">
<path d="M19.38 17.84C21.5 17.06 22.45 14.58 21.37 12.59L18.84 7.89C18.42 7.12 17.51 6.77 16.7 7.07L14.4 7.9C13.57 8.2 13.09 9.07 13.29 9.93L14.47 15.15C14.96 17.32 17.25 18.57 19.35 17.81L19.38 17.84ZM18.86 16.43C17.61 16.88 16.24 16.13 15.95 14.84L14.76 9.61C14.73 9.48 14.8 9.36 14.91 9.32L17.2 8.48C17.31 8.43 17.44 8.48 17.5 8.59L20.02 13.28C20.65 14.46 20.09 15.94 18.83 16.4L18.86 16.43Z" fill="var(--fill-0, #0095FF)"/>
<path d="M21.74 19.06L18.37 20.29C17.98 20.43 17.78 20.86 17.92 21.25C18.06 21.63 18.49 21.83 18.88 21.69L22.25 20.46C22.63 20.31 22.83 19.88 22.69 19.49C22.54 19.1 22.11 18.9 21.72 19.04L21.74 19.06Z" fill="var(--fill-0, #0095FF)"/>
<path d="M14.69 13.36H20.53C20.94 13.36 21.28 13.02 21.28 12.61C21.28 12.19 20.94 11.86 20.53 11.86H14.69C14.27 11.86 13.94 12.19 13.94 12.61C13.94 13.02 14.27 13.36 14.69 13.36Z" fill="var(--fill-0, #0095FF)"/>
<path d="M18.42 17.39L19.6 20.64C19.74 21.02 20.17 21.23 20.56 21.08C20.94 20.93 21.15 20.5 21 20.11L19.82 16.86C19.67 16.47 19.24 16.26 18.85 16.41C18.46 16.55 18.25 16.98 18.4 17.37L18.42 17.39Z" fill="var(--fill-0, #0095FF)"/>
<path d="M5.12 16.43C3.85 15.97 3.29 14.49 3.93 13.3L6.45 8.6C6.5 8.49 6.63 8.44 6.75 8.48L9.04 9.31C9.15 9.35 9.22 9.47 9.19 9.6L8 14.82C7.7 16.11 6.34 16.85 5.09 16.4L5.12 16.43ZM4.6 17.83C6.69 18.59 8.98 17.34 9.48 15.16L10.66 9.93C10.85 9.06 10.37 8.19 9.55 7.89L7.25 7.05C6.43 6.75 5.52 7.1 5.11 7.86L2.58 12.55C1.5 14.54 2.45 17.02 4.57 17.79L4.6 17.83Z" fill="var(--fill-0, #0095FF)"/>
<path d="M1.74 20.47L5.11 21.7C5.49 21.84 5.92 21.64 6.07 21.25C6.21 20.86 6.01 20.43 5.62 20.28L2.25 19.05C1.86 18.9 1.43 19.1 1.28 19.49C1.13 19.87 1.33 20.3 1.72 20.45L1.74 20.47Z" fill="var(--fill-0, #0095FF)"/>
<path d="M9.31 11.86H3.46C3.04 11.86 2.71 12.19 2.71 12.61C2.71 13.02 3.04 13.36 3.46 13.36H9.31C9.72 13.36 10.06 13.02 10.06 12.61C10.06 12.19 9.72 11.86 9.31 11.86Z" fill="var(--fill-0, #0095FF)"/>
<path d="M4.16 16.88L2.98 20.13C2.83 20.51 3.03 20.94 3.42 21.09C3.8 21.23 4.23 21.03 4.38 20.64L5.56 17.39C5.7 17 5.5 16.57 5.11 16.42C4.72 16.27 4.29 16.47 4.14 16.86L4.16 16.88Z" fill="var(--fill-0, #0095FF)"/>
<path d="M15.53 5.53L16.53 4.53C16.82 4.23 16.82 3.76 16.53 3.46C16.23 3.16 15.76 3.16 15.46 3.46L14.46 4.46C14.16 4.75 14.16 5.22 14.46 5.52C14.75 5.81 15.22 5.81 15.52 5.52L15.53 5.53Z" fill="var(--fill-0, #0095FF)"/>
<path d="M9.53 4.46L8.53 3.46C8.23 3.16 7.76 3.16 7.46 3.46C7.16 3.75 7.16 4.22 7.46 4.52L8.46 5.52C8.75 5.81 9.22 5.81 9.52 5.52C9.81 5.22 9.81 4.75 9.52 4.45L9.53 4.46Z" fill="var(--fill-0, #0095FF)"/>
<path d="M12.75 4V3C12.75 2.58 12.41 2.25 12 2.25C11.58 2.25 11.25 2.58 11.25 3V4C11.25 4.41 11.58 4.75 12 4.75C12.41 4.75 12.75 4.41 12.75 4Z" fill="var(--fill-0, #0095FF)"/>
</g>
</g>
</svg>
