<svg preserveAspectRatio="none" width="100%" height="100%" overflow="visible" style="display: block;" viewBox="0 0 24 24" fill="none" xmlns="http://www.w3.org/2000/svg">
<g id="Container">
<path id="Vector" fill-rule="evenodd" clip-rule="evenodd" d="M13.2517 2.30615C13.5683 2.43605 13.7568 2.7637 13.7099 3.10263L12.8607 9.25H19.25C19.5338 9.25 19.7933 9.41021 19.9205 9.66394C20.0477 9.91768 20.0207 10.2215 19.8509 10.4488L11.6339 21.4488C11.4291 21.723 11.0648 21.8237 10.7483 21.6938C10.4317 21.5639 10.2432 21.2363 10.2901 20.8974L11.1393 14.75H4.75C4.46618 14.75 4.20667 14.5898 4.0795 14.3361C3.95233 14.0823 3.97928 13.7785 4.14914 13.5512L12.3661 2.55115C12.5709 2.27704 12.9352 2.17626 13.2517 2.30615ZM6.2464 13.25H12C12.2168 13.25 12.423 13.3438 12.5655 13.5073C12.7079 13.6708 12.7726 13.8879 12.7429 14.1026L12.1743 18.2189L17.7536 10.75H12C11.7832 10.75 11.577 10.6562 11.4345 10.4927C11.2921 10.3292 11.2274 10.1121 11.2571 9.89737L11.8257 5.78107L6.2464 13.25Z" fill="var(--fill-0, #9BA4AB)"/>
</g>
</svg>
