<svg preserveAspectRatio="none" width="100%" height="100%" overflow="visible" style="display: block;" viewBox="0 0 5 11" fill="none" xmlns="http://www.w3.org/2000/svg">
<g id="/">
<mask id="path-1-inside-1_6526_31315" fill="white">
<path d="M0 10.661L3.5 0H4.508L1.001 10.661H0Z"/>
</mask>
<path d="M0 10.661L-0.950108 10.3491L-1.38081 11.661H0V10.661ZM3.5 0V-1H2.77579L2.54989 -0.31192L3.5 0ZM4.508 0L5.45792 0.312483L5.88967 -1H4.508V0ZM1.001 10.661V11.661H1.72476L1.95092 10.9735L1.001 10.661ZM0 10.661L0.950108 10.9729L4.45011 0.31192L3.5 0L2.54989 -0.31192L-0.950108 10.3491L0 10.661ZM3.5 0V1H4.508V0V-1H3.5V0ZM4.508 0L3.55808 -0.312483L0.0510767 10.3485L1.001 10.661L1.95092 10.9735L5.45792 0.312483L4.508 0ZM1.001 10.661V9.661H0V10.661V11.661H1.001V10.661Z" fill="var(--stroke-0, #B0B9C0)" mask="url(#path-1-inside-1_6526_31315)"/>
</g>
</svg>
